ffmpeg started on 2016-11-23 at 04:37:03
Report written to "Output/NVENCh264/results/ffmpeg/crowd_run_2160p50medium7000k.log"
Command line:
Tools/ffmpeg/ffmpeg -benchmark -y -i Input/y4m/crowd_run_2160p50.y4m -c:v h264_nvenc -preset medium -b:v 7000k -an Output/NVENCh264/encoded/crowd_run_2160p50medium7000k.mkv
ffmpeg version N-82227-gdb23fde Copyright (c) 2000-2016 the FFmpeg developers
  built with gcc 5.4.0 (Ubuntu 5.4.0-6ubuntu1~16.04.2) 20160609
  configuration: --prefix=/home/jaroslav/ffmpeg_build --pkg-config-flags=--static --extra-cflags=-I/home/jaroslav/ffmpeg_build/include --extra-ldflags=-L/home/jaroslav/ffmpeg_build/lib --bindir=/home/jaroslav/bin --enable-gpl --enable-libass --enable-libfdk-aac --enable-libfreetype --enable-libmp3lame --enable-libopus --enable-libtheora --enable-libvorbis --enable-libvpx --enable-libx264 --enable-libx265 --enable-nvenc --enable-libmfx --enable-libxvid --enable-libgsm --enable-libopencore-amrnb --enable-version3 --enable-nonfree
  libavutil      55. 35.100 / 55. 35.100
  libavcodec     57. 66.101 / 57. 66.101
  libavformat    57. 57.100 / 57. 57.100
  libavdevice    57.  2.100 / 57.  2.100
  libavfilter     6. 66.100 /  6. 66.100
  libswscale      4.  3.100 /  4.  3.100
  libswresample   2.  4.100 /  2.  4.100
  libpostproc    54.  2.100 / 54.  2.100
Input #0, yuv4mpegpipe, from 'Input/y4m/crowd_run_2160p50.y4m':
  Duration: 00:00:10.00, start: 0.000000, bitrate: 4976642 kb/s
    Stream #0:0: Video: rawvideo (I420 / 0x30323449), yuv420p(progressive), 3840x2160, SAR 1:1 DAR 16:9, 50 fps, 50 tbr, 50 tbn, 50 tbc
Output #0, matroska, to 'Output/NVENCh264/encoded/crowd_run_2160p50medium7000k.mkv':
  Metadata:
    encoder         : Lavf57.57.100
    Stream #0:0: Video: h264 (h264_nvenc) (Main) (H264 / 0x34363248), yuv420p, 3840x2160 [SAR 1:1 DAR 16:9], q=-1--1, 7000 kb/s, 50 fps, 1k tbn, 50 tbc
    Metadata:
      encoder         : Lavc57.66.101 h264_nvenc
    Side data:
      cpb: bitrate max/min/avg: 0/0/7000000 buffer size: 14000000 vbv_delay: -1
Stream mapping:
  Stream #0:0 -> #0:0 (rawvideo (native) -> h264 (h264_nvenc))
Press [q] to stop, [?] for help
frame=   18 fps=0.0 q=0.0 size=       0kB time=00:00:00.00 bitrate=N/A speed=   0x    frame=   36 fps= 35 q=47.0 size=       1kB time=00:00:00.10 bitrate=  58.1kbits/s speed=0.0975x    frame=   54 fps= 35 q=45.0 size=       1kB time=00:00:00.46 bitrate=  12.7kbits/s speed=0.297x    frame=   72 fps= 35 q=45.0 size=       1kB time=00:00:00.82 bitrate=   7.1kbits/s speed=0.397x    frame=   90 fps= 35 q=45.0 size=       1kB time=00:00:01.18 bitrate=   5.0kbits/s speed=0.457x    frame=  108 fps= 35 q=45.0 size=       1kB time=00:00:01.54 bitrate=   3.8kbits/s speed=0.495x    frame=  121 fps= 24 q=46.0 size=       1kB time=00:00:01.80 bitrate=   3.3kbits/s speed=0.357x    frame=  122 fps= 13 q=46.0 size=       1kB time=00:00:01.82 bitrate=   3.2kbits/s speed=0.201x    frame=  123 fps=9.6 q=46.0 size=       1kB time=00:00:01.84 bitrate=   3.2kbits/s speed=0.144x    frame=  134 fps= 10 q=46.0 size=       1kB time=00:00:02.06 bitrate=   2.8kbits/s speed=0.155x    frame=  152 fps= 11 q=46.0 size=       1kB time=00:00:02.42 bitrate=   2.4kbits/s speed=0.175x    frame=  169 fps= 12 q=46.0 size=       1kB time=00:00:02.76 bitrate=   2.1kbits/s speed=0.193x    frame=  186 fps= 13 q=46.0 size=       1kB time=00:00:03.10 bitrate=   1.9kbits/s speed=0.209x    frame=  203 fps= 13 q=46.0 size=       1kB time=00:00:03.44 bitrate=   1.7kbits/s speed=0.225x    frame=  220 fps= 14 q=46.0 size=       1kB time=00:00:03.78 bitrate=   1.6kbits/s speed=0.239x    frame=  238 fps= 15 q=45.0 size=       1kB time=00:00:04.14 bitrate=   1.4kbits/s speed=0.253x    frame=  256 fps= 15 q=46.0 size=       1kB time=00:00:04.50 bitrate=   1.3kbits/s speed=0.267x    frame=  274 fps= 16 q=46.0 size=       1kB time=00:00:04.86 bitrate=   1.2kbits/s speed=0.279x    frame=  291 fps= 16 q=45.0 size=    4368kB time=00:00:05.20 bitrate=6879.6kbits/s speed=0.29x    frame=  309 fps= 17 q=46.0 size=    4368kB time=00:00:05.56 bitrate=6434.3kbits/s speed=0.302x    frame=  327 fps= 17 q=46.0 size=    4368kB time=00:00:05.92 bitrate=6043.1kbits/s speed=0.313x    frame=  345 fps= 18 q=45.0 size=    4368kB time=00:00:06.28 bitrate=5696.7kbits/s speed=0.323x    frame=  363 fps= 18 q=46.0 size=    4368kB time=00:00:06.64 bitrate=5387.9kbits/s speed=0.332x    frame=  381 fps= 19 q=45.0 size=    4368kB time=00:00:07.00 bitrate=5110.8kbits/s speed=0.342x    frame=  399 fps= 19 q=46.0 size=    4368kB time=00:00:07.36 bitrate=4860.9kbits/s speed=0.35x    frame=  417 fps= 19 q=46.0 size=    4368kB time=00:00:07.72 bitrate=4634.2kbits/s speed=0.359x    frame=  435 fps= 20 q=46.0 size=    4368kB time=00:00:08.08 bitrate=4427.8kbits/s speed=0.367x    frame=  453 fps= 20 q=46.0 size=    4368kB time=00:00:08.44 bitrate=4239.0kbits/s speed=0.374x    frame=  471 fps= 20 q=46.0 size=    4368kB time=00:00:08.80 bitrate=4065.6kbits/s speed=0.382x    frame=  489 fps= 21 q=46.0 size=    4368kB time=00:00:09.16 bitrate=3905.8kbits/s speed=0.389x    frame=  500 fps= 21 q=46.0 Lsize=    8832kB time=00:00:09.98 bitrate=7249.3kbits/s speed=0.417x    
video:8828kB audio:0kB subtitle:0kB other streams:0kB global headers:0kB muxing overhead: 0.052026%
bench: utime=1.168s
bench: maxrss=978100kB
